%TF.GenerationSoftware,KiCad,Pcbnew,9.0.1*%
%TF.CreationDate,2025-05-07T13:52:14+02:00*%
%TF.ProjectId,HelioHeat,48656c69-6f48-4656-9174-2e6b69636164,rev?*%
%TF.SameCoordinates,Original*%
%TF.FileFunction,Soldermask,Bot*%
%TF.FilePolarity,Negative*%
%FSLAX46Y46*%
G04 Gerber Fmt 4.6, Leading zero omitted, Abs format (unit mm)*
G04 Created by KiCad (PCBNEW 9.0.1) date 2025-05-07 13:52:14*
%MOMM*%
%LPD*%
G01*
G04 APERTURE LIST*
G04 Aperture macros list*
%AMRoundRect*
0 Rectangle with rounded corners*
0 $1 Rounding radius*
0 $2 $3 $4 $5 $6 $7 $8 $9 X,Y pos of 4 corners*
0 Add a 4 corners polygon primitive as box body*
4,1,4,$2,$3,$4,$5,$6,$7,$8,$9,$2,$3,0*
0 Add four circle primitives for the rounded corners*
1,1,$1+$1,$2,$3*
1,1,$1+$1,$4,$5*
1,1,$1+$1,$6,$7*
1,1,$1+$1,$8,$9*
0 Add four rect primitives between the rounded corners*
20,1,$1+$1,$2,$3,$4,$5,0*
20,1,$1+$1,$4,$5,$6,$7,0*
20,1,$1+$1,$6,$7,$8,$9,0*
20,1,$1+$1,$8,$9,$2,$3,0*%
G04 Aperture macros list end*
%ADD10RoundRect,0.102000X0.565000X-0.565000X0.565000X0.565000X-0.565000X0.565000X-0.565000X-0.565000X0*%
%ADD11C,1.334000*%
%ADD12O,1.700000X1.350000*%
%ADD13O,1.500000X1.100000*%
%ADD14C,1.712000*%
%ADD15RoundRect,0.250000X-0.550000X-0.550000X0.550000X-0.550000X0.550000X0.550000X-0.550000X0.550000X0*%
%ADD16C,1.600000*%
G04 APERTURE END LIST*
D10*
%TO.C,U4*%
X115800000Y-47000000D03*
D11*
X118340000Y-47000000D03*
X120880000Y-47000000D03*
X123420000Y-47000000D03*
X125960000Y-47000000D03*
X128500000Y-47000000D03*
X131040000Y-47000000D03*
X133580000Y-47000000D03*
X133580000Y-39060000D03*
X131040000Y-39060000D03*
X128500000Y-39060000D03*
X125960000Y-39060000D03*
X123420000Y-39060000D03*
X120880000Y-39060000D03*
X118340000Y-39060000D03*
X115800000Y-39060000D03*
%TD*%
D10*
%TO.C,U3*%
X93110000Y-46970000D03*
D11*
X95650000Y-46970000D03*
X98190000Y-46970000D03*
X100730000Y-46970000D03*
X103270000Y-46970000D03*
X105810000Y-46970000D03*
X108350000Y-46970000D03*
X110890000Y-46970000D03*
X110890000Y-39030000D03*
X108350000Y-39030000D03*
X105810000Y-39030000D03*
X103270000Y-39030000D03*
X100730000Y-39030000D03*
X98190000Y-39030000D03*
X95650000Y-39030000D03*
X93110000Y-39030000D03*
%TD*%
D12*
%TO.C,J1*%
X131885000Y-26245000D03*
D13*
X134885000Y-26555000D03*
X134885000Y-31395000D03*
D12*
X131885000Y-31705000D03*
%TD*%
D14*
%TO.C,D3*%
X104240000Y-22420000D03*
X104240000Y-24960000D03*
X104240000Y-27500000D03*
X104240000Y-30040000D03*
X104240000Y-32580000D03*
X111760000Y-32580000D03*
X111760000Y-30040000D03*
X111760000Y-27500000D03*
X111760000Y-24960000D03*
X111760000Y-22420000D03*
%TD*%
%TO.C,D1*%
X76740000Y-22420000D03*
X76740000Y-24960000D03*
X76740000Y-27500000D03*
X76740000Y-30040000D03*
X76740000Y-32580000D03*
X84260000Y-32580000D03*
X84260000Y-30040000D03*
X84260000Y-27500000D03*
X84260000Y-24960000D03*
X84260000Y-22420000D03*
%TD*%
D15*
%TO.C,U1*%
X94195000Y-52690000D03*
D16*
X94195000Y-55230000D03*
X94195000Y-57770000D03*
X94195000Y-60310000D03*
X101815000Y-60310000D03*
X101815000Y-57770000D03*
X101815000Y-55230000D03*
X101815000Y-52690000D03*
%TD*%
D10*
%TO.C,U2*%
X70760000Y-47000000D03*
D11*
X73300000Y-47000000D03*
X75840000Y-47000000D03*
X78380000Y-47000000D03*
X80920000Y-47000000D03*
X83460000Y-47000000D03*
X86000000Y-47000000D03*
X88540000Y-47000000D03*
X88540000Y-39060000D03*
X86000000Y-39060000D03*
X83460000Y-39060000D03*
X80920000Y-39060000D03*
X78380000Y-39060000D03*
X75840000Y-39060000D03*
X73300000Y-39060000D03*
X70760000Y-39060000D03*
%TD*%
D14*
%TO.C,D2*%
X90740000Y-22420000D03*
X90740000Y-24960000D03*
X90740000Y-27500000D03*
X90740000Y-30040000D03*
X90740000Y-32580000D03*
X98260000Y-32580000D03*
X98260000Y-30040000D03*
X98260000Y-27500000D03*
X98260000Y-24960000D03*
X98260000Y-22420000D03*
%TD*%
M02*
