%TF.GenerationSoftware,KiCad,Pcbnew,9.0.1*%
%TF.CreationDate,2025-05-07T13:52:14+02:00*%
%TF.ProjectId,HelioHeat,48656c69-6f48-4656-9174-2e6b69636164,rev?*%
%TF.SameCoordinates,Original*%
%TF.FileFunction,Copper,L1,Top*%
%TF.FilePolarity,Positive*%
%FSLAX46Y46*%
G04 Gerber Fmt 4.6, Leading zero omitted, Abs format (unit mm)*
G04 Created by KiCad (PCBNEW 9.0.1) date 2025-05-07 13:52:14*
%MOMM*%
%LPD*%
G01*
G04 APERTURE LIST*
G04 Aperture macros list*
%AMRoundRect*
0 Rectangle with rounded corners*
0 $1 Rounding radius*
0 $2 $3 $4 $5 $6 $7 $8 $9 X,Y pos of 4 corners*
0 Add a 4 corners polygon primitive as box body*
4,1,4,$2,$3,$4,$5,$6,$7,$8,$9,$2,$3,0*
0 Add four circle primitives for the rounded corners*
1,1,$1+$1,$2,$3*
1,1,$1+$1,$4,$5*
1,1,$1+$1,$6,$7*
1,1,$1+$1,$8,$9*
0 Add four rect primitives between the rounded corners*
20,1,$1+$1,$2,$3,$4,$5,0*
20,1,$1+$1,$4,$5,$6,$7,0*
20,1,$1+$1,$6,$7,$8,$9,0*
20,1,$1+$1,$8,$9,$2,$3,0*%
G04 Aperture macros list end*
%TA.AperFunction,SMDPad,CuDef*%
%ADD10R,1.200000X0.600000*%
%TD*%
%TA.AperFunction,ComponentPad*%
%ADD11R,1.130000X1.130000*%
%TD*%
%TA.AperFunction,ComponentPad*%
%ADD12C,1.130000*%
%TD*%
%TA.AperFunction,SMDPad,CuDef*%
%ADD13RoundRect,0.100000X-0.130000X-0.100000X0.130000X-0.100000X0.130000X0.100000X-0.130000X0.100000X0*%
%TD*%
%TA.AperFunction,SMDPad,CuDef*%
%ADD14R,1.650000X0.400000*%
%TD*%
%TA.AperFunction,SMDPad,CuDef*%
%ADD15R,0.700000X1.825000*%
%TD*%
%TA.AperFunction,SMDPad,CuDef*%
%ADD16R,1.500000X2.000000*%
%TD*%
%TA.AperFunction,SMDPad,CuDef*%
%ADD17R,2.000000X1.350000*%
%TD*%
%TA.AperFunction,HeatsinkPad*%
%ADD18O,1.700000X1.350000*%
%TD*%
%TA.AperFunction,HeatsinkPad*%
%ADD19O,1.500000X1.100000*%
%TD*%
%TA.AperFunction,SMDPad,CuDef*%
%ADD20R,2.500000X1.430000*%
%TD*%
%TA.AperFunction,ComponentPad*%
%ADD21C,1.508000*%
%TD*%
%TA.AperFunction,SMDPad,CuDef*%
%ADD22RoundRect,0.100000X-0.225000X-0.100000X0.225000X-0.100000X0.225000X0.100000X-0.225000X0.100000X0*%
%TD*%
%TA.AperFunction,ComponentPad*%
%ADD23RoundRect,0.250000X-0.550000X-0.550000X0.550000X-0.550000X0.550000X0.550000X-0.550000X0.550000X0*%
%TD*%
%TA.AperFunction,ComponentPad*%
%ADD24C,1.600000*%
%TD*%
%TA.AperFunction,ViaPad*%
%ADD25C,0.600000*%
%TD*%
%TA.AperFunction,Conductor*%
%ADD26C,0.200000*%
%TD*%
%TA.AperFunction,Conductor*%
%ADD27C,0.180000*%
%TD*%
G04 APERTURE END LIST*
D10*
%TO.P,U6,1,QB*%
%TO.N,Net-(U4-B_IN)*%
X112600000Y-60270000D03*
%TO.P,U6,2,QC*%
%TO.N,Net-(U4-C_IN)*%
X112600000Y-59000000D03*
%TO.P,U6,3,QD*%
%TO.N,Net-(U4-D_IN)*%
X112600000Y-57730000D03*
%TO.P,U6,4,QE*%
%TO.N,unconnected-(U6-QE-Pad4)*%
X112600000Y-56460000D03*
%TO.P,U6,5,QF*%
%TO.N,unconnected-(U6-QF-Pad5)*%
X112600000Y-55190000D03*
%TO.P,U6,6,QG*%
%TO.N,unconnected-(U6-QG-Pad6)*%
X112600000Y-53920000D03*
%TO.P,U6,7,QH*%
%TO.N,unconnected-(U6-QH-Pad7)*%
X112600000Y-52650000D03*
%TO.P,U6,8,GND*%
%TO.N,GND*%
X112600000Y-51380000D03*
%TO.P,U6,9,QH'*%
%TO.N,unconnected-(U6-QH&apos;-Pad9)*%
X107000000Y-51380000D03*
%TO.P,U6,10,~{SRCLR}*%
%TO.N,+5V*%
X107000000Y-52650000D03*
%TO.P,U6,11,SRCLK*%
%TO.N,Net-(U1-~{RESET}{slash}PB5)*%
X107000000Y-53920000D03*
%TO.P,U6,12,RCLK*%
%TO.N,Net-(U1-XTAL1{slash}PB3)*%
X107000000Y-55190000D03*
%TO.P,U6,13,~{OE}*%
%TO.N,GND*%
X107000000Y-56460000D03*
%TO.P,U6,14,SER*%
%TO.N,Net-(U5-QH')*%
X107000000Y-57730000D03*
%TO.P,U6,15,QA*%
%TO.N,Net-(U4-A_IN)*%
X107000000Y-59000000D03*
%TO.P,U6,16,VCC*%
%TO.N,+5V*%
X107000000Y-60270000D03*
%TD*%
D11*
%TO.P,U4,1,B_IN*%
%TO.N,Net-(U4-B_IN)*%
X115800000Y-47000000D03*
D12*
%TO.P,U4,2,C_IN*%
%TO.N,Net-(U4-C_IN)*%
X118340000Y-47000000D03*
%TO.P,U4,3,~{LT}*%
%TO.N,+5V*%
X120880000Y-47000000D03*
%TO.P,U4,4,~{BL}*%
X123420000Y-47000000D03*
%TO.P,U4,5,LE/~{STROBE}*%
%TO.N,GND*%
X125960000Y-47000000D03*
%TO.P,U4,6,D_IN*%
%TO.N,Net-(U4-D_IN)*%
X128500000Y-47000000D03*
%TO.P,U4,7,A_IN*%
%TO.N,Net-(U4-A_IN)*%
X131040000Y-47000000D03*
%TO.P,U4,8,VSS*%
%TO.N,GND*%
X133580000Y-47000000D03*
%TO.P,U4,9,E_OUT*%
%TO.N,Net-(U4-E_OUT)*%
X133580000Y-39060000D03*
%TO.P,U4,10,D_OUT*%
%TO.N,Net-(U4-D_OUT)*%
X131040000Y-39060000D03*
%TO.P,U4,11,C_OUT*%
%TO.N,Net-(U4-C_OUT)*%
X128500000Y-39060000D03*
%TO.P,U4,12,B_OUT*%
%TO.N,Net-(U4-B_OUT)*%
X125960000Y-39060000D03*
%TO.P,U4,13,A_OUT*%
%TO.N,Net-(U4-A_OUT)*%
X123420000Y-39060000D03*
%TO.P,U4,14,G_OUT*%
%TO.N,Net-(U4-G_OUT)*%
X120880000Y-39060000D03*
%TO.P,U4,15,F_OUT*%
%TO.N,Net-(U4-F_OUT)*%
X118340000Y-39060000D03*
%TO.P,U4,16,VDD*%
%TO.N,+5V*%
X115800000Y-39060000D03*
%TD*%
D13*
%TO.P,R3,1*%
%TO.N,Net-(D3-Pad3)*%
X114525000Y-27500000D03*
%TO.P,R3,2*%
%TO.N,+5V*%
X115165000Y-27500000D03*
%TD*%
D11*
%TO.P,U3,1,B_IN*%
%TO.N,Net-(U3-B_IN)*%
X93110000Y-46970000D03*
D12*
%TO.P,U3,2,C_IN*%
%TO.N,Net-(U3-C_IN)*%
X95650000Y-46970000D03*
%TO.P,U3,3,~{LT}*%
%TO.N,+5V*%
X98190000Y-46970000D03*
%TO.P,U3,4,~{BL}*%
X100730000Y-46970000D03*
%TO.P,U3,5,LE/~{STROBE}*%
%TO.N,GND*%
X103270000Y-46970000D03*
%TO.P,U3,6,D_IN*%
%TO.N,Net-(U3-D_IN)*%
X105810000Y-46970000D03*
%TO.P,U3,7,A_IN*%
%TO.N,Net-(U3-A_IN)*%
X108350000Y-46970000D03*
%TO.P,U3,8,VSS*%
%TO.N,GND*%
X110890000Y-46970000D03*
%TO.P,U3,9,E_OUT*%
%TO.N,Net-(U3-E_OUT)*%
X110890000Y-39030000D03*
%TO.P,U3,10,D_OUT*%
%TO.N,Net-(U3-D_OUT)*%
X108350000Y-39030000D03*
%TO.P,U3,11,C_OUT*%
%TO.N,Net-(U3-C_OUT)*%
X105810000Y-39030000D03*
%TO.P,U3,12,B_OUT*%
%TO.N,Net-(U3-B_OUT)*%
X103270000Y-39030000D03*
%TO.P,U3,13,A_OUT*%
%TO.N,Net-(U3-A_OUT)*%
X100730000Y-39030000D03*
%TO.P,U3,14,G_OUT*%
%TO.N,Net-(U3-G_OUT)*%
X98190000Y-39030000D03*
%TO.P,U3,15,F_OUT*%
%TO.N,Net-(U3-F_OUT)*%
X95650000Y-39030000D03*
%TO.P,U3,16,VDD*%
%TO.N,+5V*%
X93110000Y-39030000D03*
%TD*%
D14*
%TO.P,J1,1,VBUS*%
%TO.N,+5V*%
X134765000Y-27675000D03*
%TO.P,J1,2,D-*%
%TO.N,unconnected-(J1-D--Pad2)*%
X134765000Y-28325000D03*
%TO.P,J1,3,D+*%
%TO.N,unconnected-(J1-D+-Pad3)*%
X134765000Y-28975000D03*
%TO.P,J1,4,ID*%
%TO.N,unconnected-(J1-ID-Pad4)*%
X134765000Y-29625000D03*
%TO.P,J1,5,GND*%
%TO.N,GND*%
X134765000Y-30275000D03*
D15*
%TO.P,J1,6,Shield*%
X133565000Y-26025000D03*
D16*
X134865000Y-26125000D03*
D17*
X132815000Y-26245000D03*
D18*
X131885000Y-26245000D03*
D19*
X134885000Y-26555000D03*
D20*
X131615000Y-28015000D03*
X131615000Y-29935000D03*
D19*
X134885000Y-31395000D03*
D18*
X131885000Y-31705000D03*
D17*
X132815000Y-31725000D03*
D16*
X134885000Y-31875000D03*
D15*
X133565000Y-31975000D03*
%TD*%
D21*
%TO.P,D3,1*%
%TO.N,Net-(U4-G_OUT)*%
X104240000Y-22420000D03*
%TO.P,D3,2*%
%TO.N,Net-(U4-F_OUT)*%
X104240000Y-24960000D03*
%TO.P,D3,3*%
%TO.N,Net-(D3-Pad3)*%
X104240000Y-27500000D03*
%TO.P,D3,4*%
%TO.N,Net-(U4-E_OUT)*%
X104240000Y-30040000D03*
%TO.P,D3,5*%
%TO.N,Net-(U4-D_OUT)*%
X104240000Y-32580000D03*
%TO.P,D3,6*%
%TO.N,GND*%
X111760000Y-32580000D03*
%TO.P,D3,7*%
%TO.N,Net-(U4-C_OUT)*%
X111760000Y-30040000D03*
%TO.P,D3,8*%
%TO.N,Net-(D3-Pad3)*%
X111760000Y-27500000D03*
%TO.P,D3,9*%
%TO.N,Net-(U4-B_OUT)*%
X111760000Y-24960000D03*
%TO.P,D3,10*%
%TO.N,Net-(U4-A_OUT)*%
X111760000Y-22420000D03*
%TD*%
D22*
%TO.P,U7,1,NC*%
%TO.N,unconnected-(U7-NC-Pad1)*%
X121050000Y-53850000D03*
%TO.P,U7,2,GND*%
%TO.N,GND*%
X121050000Y-54500000D03*
%TO.P,U7,3,V_{OUT}*%
%TO.N,Net-(U1-PB2)*%
X121050000Y-55150000D03*
%TO.P,U7,4,V_{DD}*%
%TO.N,+5V*%
X122950000Y-55150000D03*
%TO.P,U7,5,NC*%
%TO.N,unconnected-(U7-NC-Pad5)*%
X122950000Y-53850000D03*
%TD*%
D13*
%TO.P,R1,1*%
%TO.N,Net-(D1-Pad3)*%
X87025000Y-27500000D03*
%TO.P,R1,2*%
%TO.N,+5V*%
X87665000Y-27500000D03*
%TD*%
D21*
%TO.P,D1,1*%
%TO.N,Net-(U2-G_OUT)*%
X76740000Y-22420000D03*
%TO.P,D1,2*%
%TO.N,Net-(U2-F_OUT)*%
X76740000Y-24960000D03*
%TO.P,D1,3*%
%TO.N,Net-(D1-Pad3)*%
X76740000Y-27500000D03*
%TO.P,D1,4*%
%TO.N,Net-(U2-E_OUT)*%
X76740000Y-30040000D03*
%TO.P,D1,5*%
%TO.N,Net-(U2-D_OUT)*%
X76740000Y-32580000D03*
%TO.P,D1,6*%
%TO.N,GND*%
X84260000Y-32580000D03*
%TO.P,D1,7*%
%TO.N,Net-(U2-C_OUT)*%
X84260000Y-30040000D03*
%TO.P,D1,8*%
%TO.N,Net-(D1-Pad3)*%
X84260000Y-27500000D03*
%TO.P,D1,9*%
%TO.N,Net-(U2-B_OUT)*%
X84260000Y-24960000D03*
%TO.P,D1,10*%
%TO.N,Net-(U2-A_OUT)*%
X84260000Y-22420000D03*
%TD*%
D23*
%TO.P,U1,1,~{RESET}/PB5*%
%TO.N,Net-(U1-~{RESET}{slash}PB5)*%
X94195000Y-52690000D03*
D24*
%TO.P,U1,2,XTAL1/PB3*%
%TO.N,Net-(U1-XTAL1{slash}PB3)*%
X94195000Y-55230000D03*
%TO.P,U1,3,XTAL2/PB4*%
%TO.N,Net-(U1-XTAL2{slash}PB4)*%
X94195000Y-57770000D03*
%TO.P,U1,4,GND*%
%TO.N,GND*%
X94195000Y-60310000D03*
%TO.P,U1,5,AREF/PB0*%
%TO.N,unconnected-(U1-AREF{slash}PB0-Pad5)*%
X101815000Y-60310000D03*
%TO.P,U1,6,PB1*%
%TO.N,unconnected-(U1-PB1-Pad6)*%
X101815000Y-57770000D03*
%TO.P,U1,7,PB2*%
%TO.N,Net-(U1-PB2)*%
X101815000Y-55230000D03*
%TO.P,U1,8,VCC*%
%TO.N,+5V*%
X101815000Y-52690000D03*
%TD*%
D10*
%TO.P,U5,1,QB*%
%TO.N,Net-(U2-B_IN)*%
X87300000Y-59945000D03*
%TO.P,U5,2,QC*%
%TO.N,Net-(U2-C_IN)*%
X87300000Y-58675000D03*
%TO.P,U5,3,QD*%
%TO.N,Net-(U2-D_IN)*%
X87300000Y-57405000D03*
%TO.P,U5,4,QE*%
%TO.N,Net-(U3-A_IN)*%
X87300000Y-56135000D03*
%TO.P,U5,5,QF*%
%TO.N,Net-(U3-B_IN)*%
X87300000Y-54865000D03*
%TO.P,U5,6,QG*%
%TO.N,Net-(U3-C_IN)*%
X87300000Y-53595000D03*
%TO.P,U5,7,QH*%
%TO.N,Net-(U3-D_IN)*%
X87300000Y-52325000D03*
%TO.P,U5,8,GND*%
%TO.N,GND*%
X87300000Y-51055000D03*
%TO.P,U5,9,QH'*%
%TO.N,Net-(U5-QH')*%
X81700000Y-51055000D03*
%TO.P,U5,10,~{SRCLR}*%
%TO.N,+5V*%
X81700000Y-52325000D03*
%TO.P,U5,11,SRCLK*%
%TO.N,Net-(U1-~{RESET}{slash}PB5)*%
X81700000Y-53595000D03*
%TO.P,U5,12,RCLK*%
%TO.N,Net-(U1-XTAL1{slash}PB3)*%
X81700000Y-54865000D03*
%TO.P,U5,13,~{OE}*%
%TO.N,GND*%
X81700000Y-56135000D03*
%TO.P,U5,14,SER*%
%TO.N,Net-(U1-XTAL2{slash}PB4)*%
X81700000Y-57405000D03*
%TO.P,U5,15,QA*%
%TO.N,Net-(U2-A_IN)*%
X81700000Y-58675000D03*
%TO.P,U5,16,VCC*%
%TO.N,+5V*%
X81700000Y-59945000D03*
%TD*%
D13*
%TO.P,R2,1*%
%TO.N,Net-(D2-Pad3)*%
X101025000Y-27500000D03*
%TO.P,R2,2*%
%TO.N,+5V*%
X101665000Y-27500000D03*
%TD*%
D11*
%TO.P,U2,1,B_IN*%
%TO.N,Net-(U2-B_IN)*%
X70760000Y-47000000D03*
D12*
%TO.P,U2,2,C_IN*%
%TO.N,Net-(U2-C_IN)*%
X73300000Y-47000000D03*
%TO.P,U2,3,~{LT}*%
%TO.N,+5V*%
X75840000Y-47000000D03*
%TO.P,U2,4,~{BL}*%
X78380000Y-47000000D03*
%TO.P,U2,5,LE/~{STROBE}*%
%TO.N,GND*%
X80920000Y-47000000D03*
%TO.P,U2,6,D_IN*%
%TO.N,Net-(U2-D_IN)*%
X83460000Y-47000000D03*
%TO.P,U2,7,A_IN*%
%TO.N,Net-(U2-A_IN)*%
X86000000Y-47000000D03*
%TO.P,U2,8,VSS*%
%TO.N,GND*%
X88540000Y-47000000D03*
%TO.P,U2,9,E_OUT*%
%TO.N,Net-(U2-E_OUT)*%
X88540000Y-39060000D03*
%TO.P,U2,10,D_OUT*%
%TO.N,Net-(U2-D_OUT)*%
X86000000Y-39060000D03*
%TO.P,U2,11,C_OUT*%
%TO.N,Net-(U2-C_OUT)*%
X83460000Y-39060000D03*
%TO.P,U2,12,B_OUT*%
%TO.N,Net-(U2-B_OUT)*%
X80920000Y-39060000D03*
%TO.P,U2,13,A_OUT*%
%TO.N,Net-(U2-A_OUT)*%
X78380000Y-39060000D03*
%TO.P,U2,14,G_OUT*%
%TO.N,Net-(U2-G_OUT)*%
X75840000Y-39060000D03*
%TO.P,U2,15,F_OUT*%
%TO.N,Net-(U2-F_OUT)*%
X73300000Y-39060000D03*
%TO.P,U2,16,VDD*%
%TO.N,+5V*%
X70760000Y-39060000D03*
%TD*%
D21*
%TO.P,D2,1*%
%TO.N,Net-(U3-G_OUT)*%
X90740000Y-22420000D03*
%TO.P,D2,2*%
%TO.N,Net-(U3-F_OUT)*%
X90740000Y-24960000D03*
%TO.P,D2,3*%
%TO.N,Net-(D2-Pad3)*%
X90740000Y-27500000D03*
%TO.P,D2,4*%
%TO.N,Net-(U3-E_OUT)*%
X90740000Y-30040000D03*
%TO.P,D2,5*%
%TO.N,Net-(U3-D_OUT)*%
X90740000Y-32580000D03*
%TO.P,D2,6*%
%TO.N,+5V*%
X98260000Y-32580000D03*
%TO.P,D2,7*%
%TO.N,Net-(U3-C_OUT)*%
X98260000Y-30040000D03*
%TO.P,D2,8*%
%TO.N,Net-(D2-Pad3)*%
X98260000Y-27500000D03*
%TO.P,D2,9*%
%TO.N,Net-(U3-B_OUT)*%
X98260000Y-24960000D03*
%TO.P,D2,10*%
%TO.N,Net-(U3-A_OUT)*%
X98260000Y-22420000D03*
%TD*%
D25*
%TO.N,Net-(U1-PB2)*%
X119000000Y-55000000D03*
%TO.N,Net-(U1-XTAL2{slash}PB4)*%
X84500000Y-57000000D03*
%TO.N,Net-(U1-~{RESET}{slash}PB5)*%
X84000000Y-52500000D03*
X104000000Y-53500000D03*
%TO.N,GND*%
X120000000Y-52000000D03*
X112000000Y-50000000D03*
X91000000Y-60500000D03*
%TO.N,Net-(U4-F_OUT)*%
X107500000Y-30500000D03*
%TO.N,Net-(U4-B_OUT)*%
X121500000Y-29000000D03*
%TO.N,Net-(U2-C_IN)*%
X81000000Y-61000000D03*
%TO.N,Net-(U2-D_IN)*%
X86000000Y-57000000D03*
%TO.N,Net-(U2-B_IN)*%
X79500000Y-62000000D03*
%TO.N,Net-(U2-A_IN)*%
X84000000Y-59000000D03*
%TO.N,Net-(U3-C_IN)*%
X90000000Y-53000000D03*
%TO.N,Net-(U3-B_IN)*%
X89000000Y-54500000D03*
%TO.N,+5V*%
X103500000Y-51000000D03*
X95000000Y-37000000D03*
X105000000Y-60000000D03*
%TD*%
D26*
%TO.N,Net-(U1-PB2)*%
X119150000Y-55150000D02*
X119000000Y-55000000D01*
X121050000Y-55150000D02*
X119150000Y-55150000D01*
%TO.N,Net-(U1-XTAL1{slash}PB3)*%
X81468000Y-54865000D02*
X80799000Y-55534000D01*
X105639000Y-54129000D02*
X95296000Y-54129000D01*
X93959000Y-55466000D02*
X94195000Y-55230000D01*
X107000000Y-55190000D02*
X106700000Y-55190000D01*
X81700000Y-54865000D02*
X81468000Y-54865000D01*
X80799000Y-55534000D02*
X80799000Y-56736000D01*
X95296000Y-54129000D02*
X94195000Y-55230000D01*
X82764000Y-56736000D02*
X84034000Y-55466000D01*
X84034000Y-55466000D02*
X93959000Y-55466000D01*
X80799000Y-56736000D02*
X82764000Y-56736000D01*
X106700000Y-55190000D02*
X105639000Y-54129000D01*
%TO.N,Net-(U1-XTAL2{slash}PB4)*%
X81700000Y-57405000D02*
X84095000Y-57405000D01*
X84095000Y-57405000D02*
X84500000Y-57000000D01*
%TO.N,Net-(U1-~{RESET}{slash}PB5)*%
X107000000Y-53920000D02*
X106580000Y-53500000D01*
X81700000Y-53595000D02*
X82905000Y-53595000D01*
X82905000Y-53595000D02*
X84000000Y-52500000D01*
X106580000Y-53500000D02*
X104000000Y-53500000D01*
%TO.N,GND*%
X107300000Y-56460000D02*
X107949000Y-55811000D01*
X87300000Y-51055000D02*
X87300000Y-48240000D01*
X131615000Y-29935000D02*
X131615000Y-31435000D01*
X97690000Y-60310000D02*
X94195000Y-60310000D01*
X80398000Y-57605000D02*
X80799000Y-58006000D01*
X107484000Y-46611291D02*
X107991291Y-46104000D01*
X131615000Y-28015000D02*
X131615000Y-26515000D01*
X131615000Y-26515000D02*
X131885000Y-26245000D01*
X111760000Y-32580000D02*
X111760000Y-46100000D01*
X81700000Y-56135000D02*
X81932000Y-56135000D01*
X80398000Y-54665000D02*
X80398000Y-57605000D01*
X80799000Y-54264000D02*
X80398000Y-54665000D01*
X108708709Y-46104000D02*
X112000000Y-49395291D01*
X82601000Y-54264000D02*
X80799000Y-54264000D01*
X112000000Y-49395291D02*
X112000000Y-50000000D01*
X107000000Y-56460000D02*
X107300000Y-56460000D01*
X104136000Y-46104000D02*
X106976709Y-46104000D01*
X101540000Y-56460000D02*
X97690000Y-60310000D01*
X107949000Y-55811000D02*
X107949000Y-47793709D01*
X87532000Y-51055000D02*
X87300000Y-51055000D01*
X131615000Y-31435000D02*
X131885000Y-31705000D01*
X87300000Y-51055000D02*
X84975000Y-51055000D01*
X107991291Y-46104000D02*
X108708709Y-46104000D01*
X107484000Y-47328709D02*
X107484000Y-46611291D01*
X121050000Y-54500000D02*
X120805130Y-54500000D01*
X107000000Y-56460000D02*
X101540000Y-56460000D01*
X81932000Y-56135000D02*
X82601000Y-55466000D01*
X134885000Y-30395000D02*
X134765000Y-30275000D01*
X81920000Y-56135000D02*
X81700000Y-56135000D01*
X82601000Y-55466000D02*
X82601000Y-54264000D01*
X84975000Y-51055000D02*
X80920000Y-47000000D01*
X87300000Y-51055000D02*
X87000000Y-51055000D01*
X112600000Y-51380000D02*
X112600000Y-50600000D01*
X134885000Y-31395000D02*
X134885000Y-30395000D01*
X111760000Y-46100000D02*
X110890000Y-46970000D01*
X87000000Y-51055000D02*
X81920000Y-56135000D01*
X87300000Y-48240000D02*
X88540000Y-47000000D01*
X112600000Y-50600000D02*
X112000000Y-50000000D01*
X88506000Y-58006000D02*
X91000000Y-60500000D01*
X120000000Y-53694870D02*
X120000000Y-52000000D01*
X120805130Y-54500000D02*
X120000000Y-53694870D01*
X103270000Y-46970000D02*
X104136000Y-46104000D01*
X106976709Y-46104000D02*
X107484000Y-46611291D01*
X107949000Y-47793709D02*
X107484000Y-47328709D01*
X80799000Y-58006000D02*
X88506000Y-58006000D01*
%TO.N,Net-(U5-QH')*%
X81400000Y-51055000D02*
X81700000Y-51055000D01*
X106420057Y-57730000D02*
X103500000Y-60650057D01*
X78500000Y-62899000D02*
X78500000Y-53955000D01*
X103500000Y-62899000D02*
X78500000Y-62899000D01*
X78500000Y-53955000D02*
X81400000Y-51055000D01*
X103500000Y-60650057D02*
X103500000Y-62899000D01*
X107000000Y-57730000D02*
X106420057Y-57730000D01*
%TO.N,Net-(U2-C_OUT)*%
X82895000Y-31405000D02*
X84260000Y-30040000D01*
X82895000Y-38495000D02*
X82895000Y-31405000D01*
X83460000Y-39060000D02*
X82895000Y-38495000D01*
%TO.N,Net-(U2-A_OUT)*%
X78380000Y-39060000D02*
X78380000Y-28300000D01*
X78380000Y-28300000D02*
X84260000Y-22420000D01*
%TO.N,Net-(U2-B_OUT)*%
X80920000Y-28580000D02*
X80920000Y-28300000D01*
X80920000Y-39060000D02*
X80920000Y-28580000D01*
X80920000Y-28300000D02*
X84260000Y-24960000D01*
%TO.N,Net-(U2-G_OUT)*%
X74500000Y-24660000D02*
X74500000Y-37720000D01*
X74500000Y-37720000D02*
X75840000Y-39060000D01*
X76740000Y-22420000D02*
X74500000Y-24660000D01*
%TO.N,Net-(U3-E_OUT)*%
X105500000Y-35500000D02*
X108000000Y-38000000D01*
X91500000Y-30800000D02*
X91500000Y-31848004D01*
X91795000Y-32143004D02*
X91795000Y-33016996D01*
X91769548Y-33042448D02*
X94227100Y-35500000D01*
X91500000Y-31848004D02*
X91795000Y-32143004D01*
X109860000Y-38000000D02*
X110890000Y-39030000D01*
X94227100Y-35500000D02*
X105500000Y-35500000D01*
X108000000Y-38000000D02*
X109860000Y-38000000D01*
X91795000Y-33016996D02*
X91769548Y-33042448D01*
X90740000Y-30040000D02*
X91500000Y-30800000D01*
%TO.N,Net-(U3-D_OUT)*%
X90740000Y-32580000D02*
X94160000Y-36000000D01*
X105320000Y-36000000D02*
X108350000Y-39030000D01*
X94160000Y-36000000D02*
X105320000Y-36000000D01*
%TO.N,Net-(U4-F_OUT)*%
X104240000Y-24960000D02*
X107500000Y-28220000D01*
X107500000Y-28220000D02*
X107500000Y-30500000D01*
%TO.N,Net-(U4-A_OUT)*%
X120521291Y-47866000D02*
X121238709Y-47866000D01*
X121238709Y-47866000D02*
X123420000Y-45684709D01*
X111323004Y-28555000D02*
X112196996Y-28555000D01*
X114764000Y-42108709D02*
X120521291Y-47866000D01*
X112196996Y-28555000D02*
X114764000Y-31122004D01*
X123420000Y-45684709D02*
X123420000Y-39060000D01*
X114764000Y-31122004D02*
X114764000Y-42108709D01*
X110705000Y-27936996D02*
X111323004Y-28555000D01*
X110705000Y-23475000D02*
X110705000Y-27936996D01*
X111760000Y-22420000D02*
X110705000Y-23475000D01*
%TO.N,Net-(U4-B_OUT)*%
X125960000Y-39060000D02*
X121500000Y-34600000D01*
X121500000Y-34600000D02*
X121500000Y-29000000D01*
%TO.N,Net-(U2-C_IN)*%
X87300000Y-58675000D02*
X87000000Y-58675000D01*
X84675000Y-61000000D02*
X81000000Y-61000000D01*
X87000000Y-58675000D02*
X84675000Y-61000000D01*
%TO.N,Net-(U2-D_IN)*%
X87300000Y-57405000D02*
X86405000Y-57405000D01*
X86405000Y-57405000D02*
X86000000Y-57000000D01*
%TO.N,Net-(U2-B_IN)*%
X85245000Y-62000000D02*
X79500000Y-62000000D01*
X87300000Y-59945000D02*
X85245000Y-62000000D01*
%TO.N,Net-(U2-A_IN)*%
X83675000Y-58675000D02*
X84000000Y-59000000D01*
X81700000Y-58675000D02*
X83675000Y-58675000D01*
%TO.N,Net-(U3-C_IN)*%
X87300000Y-53595000D02*
X87895000Y-53000000D01*
X87895000Y-53000000D02*
X90000000Y-53000000D01*
%TO.N,Net-(U3-A_IN)*%
X106099000Y-57061000D02*
X107901000Y-57061000D01*
X93738950Y-61411000D02*
X98818950Y-61411000D01*
X108350000Y-56612000D02*
X108350000Y-46970000D01*
X101358950Y-58871000D02*
X104289000Y-58871000D01*
X98818950Y-61411000D02*
X101358950Y-58871000D01*
X88462950Y-56135000D02*
X93738950Y-61411000D01*
X104289000Y-58871000D02*
X106099000Y-57061000D01*
X107901000Y-57061000D02*
X108350000Y-56612000D01*
X87300000Y-56135000D02*
X88462950Y-56135000D01*
%TO.N,Net-(U3-D_IN)*%
X87300000Y-52325000D02*
X92673840Y-52325000D01*
X101191000Y-51589000D02*
X105810000Y-46970000D01*
X93409840Y-51589000D02*
X101191000Y-51589000D01*
X92673840Y-52325000D02*
X93409840Y-51589000D01*
%TO.N,Net-(U3-B_IN)*%
X88000000Y-54500000D02*
X89000000Y-54500000D01*
X87635000Y-54865000D02*
X88000000Y-54500000D01*
X87300000Y-54865000D02*
X87635000Y-54865000D01*
%TO.N,Net-(U4-B_IN)*%
X111699000Y-59601000D02*
X111699000Y-58399000D01*
X115800000Y-56200000D02*
X115800000Y-47000000D01*
X112600000Y-60270000D02*
X112368000Y-60270000D01*
X111699000Y-58399000D02*
X113601000Y-58399000D01*
X113601000Y-58399000D02*
X115800000Y-56200000D01*
X112368000Y-60270000D02*
X111699000Y-59601000D01*
%TO.N,Net-(U4-A_IN)*%
X109260900Y-59000000D02*
X111661900Y-61401000D01*
X111661900Y-61401000D02*
X128666100Y-61401000D01*
X128666100Y-61401000D02*
X131040000Y-59027100D01*
X131040000Y-59027100D02*
X131040000Y-47000000D01*
X107000000Y-59000000D02*
X109260900Y-59000000D01*
%TO.N,Net-(U4-C_IN)*%
X118340000Y-58660000D02*
X118340000Y-47000000D01*
X118000000Y-59000000D02*
X118340000Y-58660000D01*
X112600000Y-59000000D02*
X118000000Y-59000000D01*
%TO.N,Net-(U4-D_IN)*%
X128500000Y-61000000D02*
X128500000Y-47000000D01*
X112600000Y-57730000D02*
X111800900Y-57730000D01*
X111298000Y-58232900D02*
X111298000Y-60470000D01*
X111298000Y-60470000D02*
X111828000Y-61000000D01*
X111828000Y-61000000D02*
X128500000Y-61000000D01*
X111800900Y-57730000D02*
X111298000Y-58232900D01*
D27*
%TO.N,Net-(D1-Pad3)*%
X84260000Y-27500000D02*
X87025000Y-27500000D01*
%TO.N,Net-(D2-Pad3)*%
X98260000Y-27500000D02*
X101025000Y-27500000D01*
D26*
%TO.N,Net-(D3-Pad3)*%
X111760000Y-27500000D02*
X114525000Y-27500000D01*
%TO.N,+5V*%
X78380000Y-47000000D02*
X79695291Y-47000000D01*
X93110000Y-39030000D02*
X93110000Y-38890000D01*
X122950000Y-55150000D02*
X124000000Y-54100000D01*
X93110000Y-38890000D02*
X95000000Y-37000000D01*
X79695291Y-47000000D02*
X80054000Y-46641291D01*
X107000000Y-60270000D02*
X105270000Y-60270000D01*
X135936000Y-24844000D02*
X135903500Y-24811500D01*
X120880000Y-47000000D02*
X115800000Y-41920000D01*
X102500000Y-19000000D02*
X101665000Y-19835000D01*
X80054000Y-47529000D02*
X80054000Y-46641291D01*
X106331000Y-51981000D02*
X106099000Y-51981000D01*
X135936000Y-27529000D02*
X135936000Y-24844000D01*
X84805291Y-41890000D02*
X93110000Y-41890000D01*
X81700000Y-52325000D02*
X82500000Y-52325000D01*
X75840000Y-47000000D02*
X70760000Y-41920000D01*
X105270000Y-60270000D02*
X105000000Y-60000000D01*
X135790000Y-27675000D02*
X135936000Y-27529000D01*
X79997000Y-58542000D02*
X79997000Y-53796000D01*
X79997000Y-53796000D02*
X81468000Y-52325000D01*
X105350000Y-51000000D02*
X103505000Y-51000000D01*
X81700000Y-59945000D02*
X81400000Y-59945000D01*
X98190000Y-46970000D02*
X93110000Y-41890000D01*
X115800000Y-41920000D02*
X115800000Y-39060000D01*
X89000000Y-19000000D02*
X87665000Y-20335000D01*
X115165000Y-27500000D02*
X115165000Y-38425000D01*
X82500000Y-52325000D02*
X83675000Y-51150000D01*
X116500000Y-19000000D02*
X102500000Y-19000000D01*
X117853500Y-24811500D02*
X117853500Y-20353500D01*
X75840000Y-47000000D02*
X78380000Y-47000000D01*
X106099000Y-51981000D02*
X106099000Y-51749000D01*
X103505000Y-51000000D02*
X101815000Y-52690000D01*
X115165000Y-38425000D02*
X115800000Y-39060000D01*
X83675000Y-51150000D02*
X80054000Y-47529000D01*
X106099000Y-51749000D02*
X105350000Y-51000000D01*
X81400000Y-59945000D02*
X79997000Y-58542000D01*
X93110000Y-41890000D02*
X93110000Y-39030000D01*
X70760000Y-41920000D02*
X70760000Y-39060000D01*
X134765000Y-27675000D02*
X135790000Y-27675000D01*
X80054000Y-46641291D02*
X84805291Y-41890000D01*
X124000000Y-54100000D02*
X124000000Y-47580000D01*
X101665000Y-19835000D02*
X101665000Y-27500000D01*
X117853500Y-20353500D02*
X116500000Y-19000000D01*
X87665000Y-20335000D02*
X87665000Y-27500000D01*
X102500000Y-19000000D02*
X89000000Y-19000000D01*
X101665000Y-27500000D02*
X101665000Y-29175000D01*
X135903500Y-24811500D02*
X117853500Y-24811500D01*
X117853500Y-24811500D02*
X115165000Y-27500000D01*
X107000000Y-52650000D02*
X106331000Y-51981000D01*
X101665000Y-29175000D02*
X98260000Y-32580000D01*
X124000000Y-47580000D02*
X123420000Y-47000000D01*
X81468000Y-52325000D02*
X81700000Y-52325000D01*
%TD*%
M02*
