%TF.GenerationSoftware,KiCad,Pcbnew,9.0.1*%
%TF.CreationDate,2025-05-07T13:52:14+02:00*%
%TF.ProjectId,HelioHeat,48656c69-6f48-4656-9174-2e6b69636164,rev?*%
%TF.SameCoordinates,Original*%
%TF.FileFunction,Copper,L2,Bot*%
%TF.FilePolarity,Positive*%
%FSLAX46Y46*%
G04 Gerber Fmt 4.6, Leading zero omitted, Abs format (unit mm)*
G04 Created by KiCad (PCBNEW 9.0.1) date 2025-05-07 13:52:14*
%MOMM*%
%LPD*%
G01*
G04 APERTURE LIST*
G04 Aperture macros list*
%AMRoundRect*
0 Rectangle with rounded corners*
0 $1 Rounding radius*
0 $2 $3 $4 $5 $6 $7 $8 $9 X,Y pos of 4 corners*
0 Add a 4 corners polygon primitive as box body*
4,1,4,$2,$3,$4,$5,$6,$7,$8,$9,$2,$3,0*
0 Add four circle primitives for the rounded corners*
1,1,$1+$1,$2,$3*
1,1,$1+$1,$4,$5*
1,1,$1+$1,$6,$7*
1,1,$1+$1,$8,$9*
0 Add four rect primitives between the rounded corners*
20,1,$1+$1,$2,$3,$4,$5,0*
20,1,$1+$1,$4,$5,$6,$7,0*
20,1,$1+$1,$6,$7,$8,$9,0*
20,1,$1+$1,$8,$9,$2,$3,0*%
G04 Aperture macros list end*
%TA.AperFunction,ComponentPad*%
%ADD10R,1.130000X1.130000*%
%TD*%
%TA.AperFunction,ComponentPad*%
%ADD11C,1.130000*%
%TD*%
%TA.AperFunction,HeatsinkPad*%
%ADD12O,1.700000X1.350000*%
%TD*%
%TA.AperFunction,HeatsinkPad*%
%ADD13O,1.500000X1.100000*%
%TD*%
%TA.AperFunction,ComponentPad*%
%ADD14C,1.508000*%
%TD*%
%TA.AperFunction,ComponentPad*%
%ADD15RoundRect,0.250000X-0.550000X-0.550000X0.550000X-0.550000X0.550000X0.550000X-0.550000X0.550000X0*%
%TD*%
%TA.AperFunction,ComponentPad*%
%ADD16C,1.600000*%
%TD*%
%TA.AperFunction,ViaPad*%
%ADD17C,0.600000*%
%TD*%
%TA.AperFunction,Conductor*%
%ADD18C,0.200000*%
%TD*%
G04 APERTURE END LIST*
D10*
%TO.P,U4,1,B_IN*%
%TO.N,Net-(U4-B_IN)*%
X115800000Y-47000000D03*
D11*
%TO.P,U4,2,C_IN*%
%TO.N,Net-(U4-C_IN)*%
X118340000Y-47000000D03*
%TO.P,U4,3,~{LT}*%
%TO.N,+5V*%
X120880000Y-47000000D03*
%TO.P,U4,4,~{BL}*%
X123420000Y-47000000D03*
%TO.P,U4,5,LE/~{STROBE}*%
%TO.N,GND*%
X125960000Y-47000000D03*
%TO.P,U4,6,D_IN*%
%TO.N,Net-(U4-D_IN)*%
X128500000Y-47000000D03*
%TO.P,U4,7,A_IN*%
%TO.N,Net-(U4-A_IN)*%
X131040000Y-47000000D03*
%TO.P,U4,8,VSS*%
%TO.N,GND*%
X133580000Y-47000000D03*
%TO.P,U4,9,E_OUT*%
%TO.N,Net-(U4-E_OUT)*%
X133580000Y-39060000D03*
%TO.P,U4,10,D_OUT*%
%TO.N,Net-(U4-D_OUT)*%
X131040000Y-39060000D03*
%TO.P,U4,11,C_OUT*%
%TO.N,Net-(U4-C_OUT)*%
X128500000Y-39060000D03*
%TO.P,U4,12,B_OUT*%
%TO.N,Net-(U4-B_OUT)*%
X125960000Y-39060000D03*
%TO.P,U4,13,A_OUT*%
%TO.N,Net-(U4-A_OUT)*%
X123420000Y-39060000D03*
%TO.P,U4,14,G_OUT*%
%TO.N,Net-(U4-G_OUT)*%
X120880000Y-39060000D03*
%TO.P,U4,15,F_OUT*%
%TO.N,Net-(U4-F_OUT)*%
X118340000Y-39060000D03*
%TO.P,U4,16,VDD*%
%TO.N,+5V*%
X115800000Y-39060000D03*
%TD*%
D10*
%TO.P,U3,1,B_IN*%
%TO.N,Net-(U3-B_IN)*%
X93110000Y-46970000D03*
D11*
%TO.P,U3,2,C_IN*%
%TO.N,Net-(U3-C_IN)*%
X95650000Y-46970000D03*
%TO.P,U3,3,~{LT}*%
%TO.N,+5V*%
X98190000Y-46970000D03*
%TO.P,U3,4,~{BL}*%
X100730000Y-46970000D03*
%TO.P,U3,5,LE/~{STROBE}*%
%TO.N,GND*%
X103270000Y-46970000D03*
%TO.P,U3,6,D_IN*%
%TO.N,Net-(U3-D_IN)*%
X105810000Y-46970000D03*
%TO.P,U3,7,A_IN*%
%TO.N,Net-(U3-A_IN)*%
X108350000Y-46970000D03*
%TO.P,U3,8,VSS*%
%TO.N,GND*%
X110890000Y-46970000D03*
%TO.P,U3,9,E_OUT*%
%TO.N,Net-(U3-E_OUT)*%
X110890000Y-39030000D03*
%TO.P,U3,10,D_OUT*%
%TO.N,Net-(U3-D_OUT)*%
X108350000Y-39030000D03*
%TO.P,U3,11,C_OUT*%
%TO.N,Net-(U3-C_OUT)*%
X105810000Y-39030000D03*
%TO.P,U3,12,B_OUT*%
%TO.N,Net-(U3-B_OUT)*%
X103270000Y-39030000D03*
%TO.P,U3,13,A_OUT*%
%TO.N,Net-(U3-A_OUT)*%
X100730000Y-39030000D03*
%TO.P,U3,14,G_OUT*%
%TO.N,Net-(U3-G_OUT)*%
X98190000Y-39030000D03*
%TO.P,U3,15,F_OUT*%
%TO.N,Net-(U3-F_OUT)*%
X95650000Y-39030000D03*
%TO.P,U3,16,VDD*%
%TO.N,+5V*%
X93110000Y-39030000D03*
%TD*%
D12*
%TO.P,J1,6,Shield*%
%TO.N,GND*%
X131885000Y-26245000D03*
D13*
X134885000Y-26555000D03*
X134885000Y-31395000D03*
D12*
X131885000Y-31705000D03*
%TD*%
D14*
%TO.P,D3,1*%
%TO.N,Net-(U4-G_OUT)*%
X104240000Y-22420000D03*
%TO.P,D3,2*%
%TO.N,Net-(U4-F_OUT)*%
X104240000Y-24960000D03*
%TO.P,D3,3*%
%TO.N,Net-(D3-Pad3)*%
X104240000Y-27500000D03*
%TO.P,D3,4*%
%TO.N,Net-(U4-E_OUT)*%
X104240000Y-30040000D03*
%TO.P,D3,5*%
%TO.N,Net-(U4-D_OUT)*%
X104240000Y-32580000D03*
%TO.P,D3,6*%
%TO.N,GND*%
X111760000Y-32580000D03*
%TO.P,D3,7*%
%TO.N,Net-(U4-C_OUT)*%
X111760000Y-30040000D03*
%TO.P,D3,8*%
%TO.N,Net-(D3-Pad3)*%
X111760000Y-27500000D03*
%TO.P,D3,9*%
%TO.N,Net-(U4-B_OUT)*%
X111760000Y-24960000D03*
%TO.P,D3,10*%
%TO.N,Net-(U4-A_OUT)*%
X111760000Y-22420000D03*
%TD*%
%TO.P,D1,1*%
%TO.N,Net-(U2-G_OUT)*%
X76740000Y-22420000D03*
%TO.P,D1,2*%
%TO.N,Net-(U2-F_OUT)*%
X76740000Y-24960000D03*
%TO.P,D1,3*%
%TO.N,Net-(D1-Pad3)*%
X76740000Y-27500000D03*
%TO.P,D1,4*%
%TO.N,Net-(U2-E_OUT)*%
X76740000Y-30040000D03*
%TO.P,D1,5*%
%TO.N,Net-(U2-D_OUT)*%
X76740000Y-32580000D03*
%TO.P,D1,6*%
%TO.N,GND*%
X84260000Y-32580000D03*
%TO.P,D1,7*%
%TO.N,Net-(U2-C_OUT)*%
X84260000Y-30040000D03*
%TO.P,D1,8*%
%TO.N,Net-(D1-Pad3)*%
X84260000Y-27500000D03*
%TO.P,D1,9*%
%TO.N,Net-(U2-B_OUT)*%
X84260000Y-24960000D03*
%TO.P,D1,10*%
%TO.N,Net-(U2-A_OUT)*%
X84260000Y-22420000D03*
%TD*%
D15*
%TO.P,U1,1,~{RESET}/PB5*%
%TO.N,Net-(U1-~{RESET}{slash}PB5)*%
X94195000Y-52690000D03*
D16*
%TO.P,U1,2,XTAL1/PB3*%
%TO.N,Net-(U1-XTAL1{slash}PB3)*%
X94195000Y-55230000D03*
%TO.P,U1,3,XTAL2/PB4*%
%TO.N,Net-(U1-XTAL2{slash}PB4)*%
X94195000Y-57770000D03*
%TO.P,U1,4,GND*%
%TO.N,GND*%
X94195000Y-60310000D03*
%TO.P,U1,5,AREF/PB0*%
%TO.N,unconnected-(U1-AREF{slash}PB0-Pad5)*%
X101815000Y-60310000D03*
%TO.P,U1,6,PB1*%
%TO.N,unconnected-(U1-PB1-Pad6)*%
X101815000Y-57770000D03*
%TO.P,U1,7,PB2*%
%TO.N,Net-(U1-PB2)*%
X101815000Y-55230000D03*
%TO.P,U1,8,VCC*%
%TO.N,+5V*%
X101815000Y-52690000D03*
%TD*%
D10*
%TO.P,U2,1,B_IN*%
%TO.N,Net-(U2-B_IN)*%
X70760000Y-47000000D03*
D11*
%TO.P,U2,2,C_IN*%
%TO.N,Net-(U2-C_IN)*%
X73300000Y-47000000D03*
%TO.P,U2,3,~{LT}*%
%TO.N,+5V*%
X75840000Y-47000000D03*
%TO.P,U2,4,~{BL}*%
X78380000Y-47000000D03*
%TO.P,U2,5,LE/~{STROBE}*%
%TO.N,GND*%
X80920000Y-47000000D03*
%TO.P,U2,6,D_IN*%
%TO.N,Net-(U2-D_IN)*%
X83460000Y-47000000D03*
%TO.P,U2,7,A_IN*%
%TO.N,Net-(U2-A_IN)*%
X86000000Y-47000000D03*
%TO.P,U2,8,VSS*%
%TO.N,GND*%
X88540000Y-47000000D03*
%TO.P,U2,9,E_OUT*%
%TO.N,Net-(U2-E_OUT)*%
X88540000Y-39060000D03*
%TO.P,U2,10,D_OUT*%
%TO.N,Net-(U2-D_OUT)*%
X86000000Y-39060000D03*
%TO.P,U2,11,C_OUT*%
%TO.N,Net-(U2-C_OUT)*%
X83460000Y-39060000D03*
%TO.P,U2,12,B_OUT*%
%TO.N,Net-(U2-B_OUT)*%
X80920000Y-39060000D03*
%TO.P,U2,13,A_OUT*%
%TO.N,Net-(U2-A_OUT)*%
X78380000Y-39060000D03*
%TO.P,U2,14,G_OUT*%
%TO.N,Net-(U2-G_OUT)*%
X75840000Y-39060000D03*
%TO.P,U2,15,F_OUT*%
%TO.N,Net-(U2-F_OUT)*%
X73300000Y-39060000D03*
%TO.P,U2,16,VDD*%
%TO.N,+5V*%
X70760000Y-39060000D03*
%TD*%
D14*
%TO.P,D2,1*%
%TO.N,Net-(U3-G_OUT)*%
X90740000Y-22420000D03*
%TO.P,D2,2*%
%TO.N,Net-(U3-F_OUT)*%
X90740000Y-24960000D03*
%TO.P,D2,3*%
%TO.N,Net-(D2-Pad3)*%
X90740000Y-27500000D03*
%TO.P,D2,4*%
%TO.N,Net-(U3-E_OUT)*%
X90740000Y-30040000D03*
%TO.P,D2,5*%
%TO.N,Net-(U3-D_OUT)*%
X90740000Y-32580000D03*
%TO.P,D2,6*%
%TO.N,+5V*%
X98260000Y-32580000D03*
%TO.P,D2,7*%
%TO.N,Net-(U3-C_OUT)*%
X98260000Y-30040000D03*
%TO.P,D2,8*%
%TO.N,Net-(D2-Pad3)*%
X98260000Y-27500000D03*
%TO.P,D2,9*%
%TO.N,Net-(U3-B_OUT)*%
X98260000Y-24960000D03*
%TO.P,D2,10*%
%TO.N,Net-(U3-A_OUT)*%
X98260000Y-22420000D03*
%TD*%
D17*
%TO.N,Net-(U1-PB2)*%
X119000000Y-55000000D03*
%TO.N,Net-(U1-XTAL2{slash}PB4)*%
X84500000Y-57000000D03*
%TO.N,Net-(U1-~{RESET}{slash}PB5)*%
X84000000Y-52500000D03*
X104000000Y-53500000D03*
%TO.N,GND*%
X120000000Y-52000000D03*
X112000000Y-50000000D03*
X91000000Y-60500000D03*
%TO.N,Net-(U4-F_OUT)*%
X107500000Y-30500000D03*
%TO.N,Net-(U4-B_OUT)*%
X121500000Y-29000000D03*
%TO.N,Net-(U2-C_IN)*%
X81000000Y-61000000D03*
%TO.N,Net-(U2-D_IN)*%
X86000000Y-57000000D03*
%TO.N,Net-(U2-B_IN)*%
X79500000Y-62000000D03*
%TO.N,Net-(U2-A_IN)*%
X84000000Y-59000000D03*
%TO.N,Net-(U3-C_IN)*%
X90000000Y-53000000D03*
%TO.N,Net-(U3-B_IN)*%
X89000000Y-54500000D03*
%TO.N,+5V*%
X103500000Y-51000000D03*
X95000000Y-37000000D03*
X105000000Y-60000000D03*
%TD*%
D18*
%TO.N,Net-(U1-PB2)*%
X101815000Y-55230000D02*
X118770000Y-55230000D01*
X118770000Y-55230000D02*
X119000000Y-55000000D01*
%TO.N,Net-(U1-XTAL2{slash}PB4)*%
X85270000Y-57770000D02*
X84500000Y-57000000D01*
X94195000Y-57770000D02*
X85270000Y-57770000D01*
%TO.N,Net-(U1-~{RESET}{slash}PB5)*%
X85521057Y-58871000D02*
X94651050Y-58871000D01*
X95296000Y-53791000D02*
X94195000Y-52690000D01*
X94195000Y-52690000D02*
X95296000Y-51589000D01*
X83899000Y-52601000D02*
X83899000Y-57248943D01*
X104000000Y-53317950D02*
X104000000Y-53500000D01*
X84000000Y-52500000D02*
X83899000Y-52601000D01*
X102271050Y-51589000D02*
X104000000Y-53317950D01*
X95296000Y-51589000D02*
X102271050Y-51589000D01*
X94651050Y-58871000D02*
X95296000Y-58226050D01*
X83899000Y-57248943D02*
X85521057Y-58871000D01*
X95296000Y-58226050D02*
X95296000Y-53791000D01*
%TO.N,GND*%
X87770709Y-41054000D02*
X89406000Y-39418709D01*
X132714000Y-46134000D02*
X133580000Y-47000000D01*
X80920000Y-47000000D02*
X86866000Y-41054000D01*
X131885000Y-31705000D02*
X131885000Y-26245000D01*
X112960000Y-49040000D02*
X110890000Y-46970000D01*
X136500000Y-47000000D02*
X136500000Y-36000000D01*
X112960000Y-49040000D02*
X112000000Y-50000000D01*
X134885000Y-31395000D02*
X132195000Y-31395000D01*
X119500000Y-52500000D02*
X116420000Y-52500000D01*
X134885000Y-34385000D02*
X134885000Y-31395000D01*
X131885000Y-26245000D02*
X134575000Y-26245000D01*
X125960000Y-47000000D02*
X120960000Y-52000000D01*
X132195000Y-31395000D02*
X131885000Y-31705000D01*
X125960000Y-47000000D02*
X126826000Y-46134000D01*
X133580000Y-47000000D02*
X136500000Y-47000000D01*
X91190000Y-60310000D02*
X91000000Y-60500000D01*
X116420000Y-52500000D02*
X112960000Y-49040000D01*
X134575000Y-26245000D02*
X134885000Y-26555000D01*
X94195000Y-60310000D02*
X91190000Y-60310000D01*
X86866000Y-41054000D02*
X87770709Y-41054000D01*
X126826000Y-46134000D02*
X132714000Y-46134000D01*
X89406000Y-37726000D02*
X84260000Y-32580000D01*
X136500000Y-36000000D02*
X134885000Y-34385000D01*
X89406000Y-39418709D02*
X89406000Y-37726000D01*
X120960000Y-52000000D02*
X120000000Y-52000000D01*
X120000000Y-52000000D02*
X119500000Y-52500000D01*
%TO.N,Net-(U2-F_OUT)*%
X76740000Y-24960000D02*
X73300000Y-28400000D01*
X73300000Y-28400000D02*
X73300000Y-39060000D01*
%TO.N,Net-(U2-D_OUT)*%
X76740000Y-32580000D02*
X79520000Y-32580000D01*
X79520000Y-32580000D02*
X86000000Y-39060000D01*
%TO.N,Net-(U2-E_OUT)*%
X79520000Y-30040000D02*
X88540000Y-39060000D01*
X76740000Y-30040000D02*
X79520000Y-30040000D01*
%TO.N,Net-(U3-G_OUT)*%
X97220000Y-40000000D02*
X98190000Y-39030000D01*
X90740000Y-22420000D02*
X89284000Y-23876000D01*
X95395291Y-40000000D02*
X97220000Y-40000000D01*
X89284000Y-33888709D02*
X95395291Y-40000000D01*
X89284000Y-23876000D02*
X89284000Y-33888709D01*
%TO.N,Net-(U3-C_OUT)*%
X104840000Y-40000000D02*
X105810000Y-39030000D01*
X99864000Y-39388709D02*
X100475291Y-40000000D01*
X99864000Y-31644000D02*
X99864000Y-39388709D01*
X98260000Y-30040000D02*
X99864000Y-31644000D01*
X100475291Y-40000000D02*
X104840000Y-40000000D01*
%TO.N,Net-(U3-B_OUT)*%
X102000000Y-25500000D02*
X102000000Y-37760000D01*
X101460000Y-24960000D02*
X102000000Y-25500000D01*
X102000000Y-37760000D02*
X103270000Y-39030000D01*
X98260000Y-24960000D02*
X101460000Y-24960000D01*
%TO.N,Net-(U3-F_OUT)*%
X90740000Y-24960000D02*
X89685000Y-26015000D01*
X89685000Y-26015000D02*
X89685000Y-33065000D01*
X89685000Y-33065000D02*
X95650000Y-39030000D01*
%TO.N,Net-(U3-A_OUT)*%
X97205000Y-23475000D02*
X97205000Y-25396996D01*
X97823004Y-26015000D02*
X100485000Y-26015000D01*
X97205000Y-25396996D02*
X97823004Y-26015000D01*
X98260000Y-22420000D02*
X97205000Y-23475000D01*
X100730000Y-26230000D02*
X100730000Y-39030000D01*
X100500000Y-26000000D02*
X100730000Y-26230000D01*
X100485000Y-26015000D02*
X100500000Y-26000000D01*
%TO.N,Net-(U4-C_OUT)*%
X119480000Y-30040000D02*
X128500000Y-39060000D01*
X111760000Y-30040000D02*
X119480000Y-30040000D01*
%TO.N,Net-(U4-G_OUT)*%
X108555000Y-28555000D02*
X111525000Y-31525000D01*
X104240000Y-22420000D02*
X103185000Y-23475000D01*
X103185000Y-27936996D02*
X103803004Y-28555000D01*
X113345000Y-31525000D02*
X120880000Y-39060000D01*
X103185000Y-23475000D02*
X103185000Y-27936996D01*
X103803004Y-28555000D02*
X108555000Y-28555000D01*
X111525000Y-31525000D02*
X113345000Y-31525000D01*
%TO.N,Net-(U4-F_OUT)*%
X112915000Y-33635000D02*
X110635000Y-33635000D01*
X118340000Y-39060000D02*
X112915000Y-33635000D01*
X110635000Y-33635000D02*
X107500000Y-30500000D01*
%TO.N,Net-(U4-E_OUT)*%
X104240000Y-30040000D02*
X114126000Y-39926000D01*
X132714000Y-39926000D02*
X133580000Y-39060000D01*
X114126000Y-39926000D02*
X132714000Y-39926000D01*
%TO.N,Net-(U4-B_OUT)*%
X111760000Y-24960000D02*
X115800000Y-29000000D01*
X115800000Y-29000000D02*
X121500000Y-29000000D01*
%TO.N,Net-(U4-D_OUT)*%
X113959900Y-40327000D02*
X133537709Y-40327000D01*
X134446000Y-39418709D02*
X134446000Y-38701291D01*
X106212900Y-32580000D02*
X113959900Y-40327000D01*
X134446000Y-38701291D02*
X133938709Y-38194000D01*
X131906000Y-38194000D02*
X131040000Y-39060000D01*
X133537709Y-40327000D02*
X134446000Y-39418709D01*
X104240000Y-32580000D02*
X106212900Y-32580000D01*
X133938709Y-38194000D02*
X131906000Y-38194000D01*
%TO.N,Net-(U2-C_IN)*%
X75500000Y-49200000D02*
X75500000Y-52500000D01*
X75500000Y-55500000D02*
X81000000Y-61000000D01*
X75500000Y-52500000D02*
X75500000Y-55500000D01*
X73300000Y-47000000D02*
X75500000Y-49200000D01*
%TO.N,Net-(U2-D_IN)*%
X86000000Y-49540000D02*
X86000000Y-57000000D01*
X83460000Y-47000000D02*
X86000000Y-49540000D01*
%TO.N,Net-(U2-B_IN)*%
X70760000Y-47000000D02*
X70760000Y-53260000D01*
X70760000Y-53260000D02*
X79500000Y-62000000D01*
%TO.N,Net-(U2-A_IN)*%
X82594000Y-57594000D02*
X84000000Y-59000000D01*
X85134000Y-46134000D02*
X83101291Y-46134000D01*
X82594000Y-46641291D02*
X82594000Y-57594000D01*
X86000000Y-47000000D02*
X85134000Y-46134000D01*
X83101291Y-46134000D02*
X82594000Y-46641291D01*
%TO.N,Net-(U3-C_IN)*%
X95650000Y-46970000D02*
X90000000Y-52620000D01*
X90000000Y-52620000D02*
X90000000Y-53000000D01*
%TO.N,Net-(U3-B_IN)*%
X93110000Y-46970000D02*
X89000000Y-51080000D01*
X89000000Y-51080000D02*
X89000000Y-54500000D01*
%TO.N,Net-(D1-Pad3)*%
X76740000Y-27500000D02*
X84260000Y-27500000D01*
%TO.N,Net-(D2-Pad3)*%
X90740000Y-27500000D02*
X98260000Y-27500000D01*
%TO.N,Net-(D3-Pad3)*%
X104240000Y-27500000D02*
X111760000Y-27500000D01*
%TO.N,+5V*%
X103500000Y-49740000D02*
X103500000Y-51000000D01*
X100714000Y-53791000D02*
X100714000Y-58564050D01*
X100714000Y-58564050D02*
X101358950Y-59209000D01*
X98260000Y-32580000D02*
X98260000Y-33740000D01*
X100730000Y-46970000D02*
X103500000Y-49740000D01*
X98260000Y-33740000D02*
X95000000Y-37000000D01*
X123420000Y-47000000D02*
X120880000Y-47000000D01*
X101358950Y-59209000D02*
X104209000Y-59209000D01*
X100730000Y-46970000D02*
X98190000Y-46970000D01*
X101815000Y-52690000D02*
X100714000Y-53791000D01*
X104209000Y-59209000D02*
X105000000Y-60000000D01*
%TD*%
M02*
