M48
; DRILL file {KiCad 9.0.1} date 2025-05-07T13:52:51+0200
; FORMAT={-:-/ absolute / metric / decimal}
; #@! TF.CreationDate,2025-05-07T13:52:51+02:00
; #@! TF.GenerationSoftware,Kicad,Pcbnew,9.0.1
; #@! TF.FileFunction,Plated,1,2,PTH
FMAT,2
METRIC
; #@! TA.AperFunction,Plated,PTH,ViaDrill
T1C0.300
; #@! TA.AperFunction,Plated,PTH,ComponentDrill
T2C0.650
; #@! TA.AperFunction,Plated,PTH,ComponentDrill
T3C0.700
; #@! TA.AperFunction,Plated,PTH,ComponentDrill
T4C0.780
; #@! TA.AperFunction,Plated,PTH,ComponentDrill
T5C0.800
; #@! TA.AperFunction,Plated,PTH,ComponentDrill
T6C1.000
%
G90
G05
T1
X79.5Y-62.0
X81.0Y-61.0
X84.0Y-52.5
X84.0Y-59.0
X84.5Y-57.0
X86.0Y-57.0
X89.0Y-54.5
X90.0Y-53.0
X91.0Y-60.5
X95.0Y-37.0
X103.5Y-51.0
X104.0Y-53.5
X105.0Y-60.0
X107.5Y-30.5
X112.0Y-50.0
X119.0Y-55.0
X120.0Y-52.0
X121.5Y-29.0
T4
X70.76Y-39.06
X70.76Y-47.0
X73.3Y-39.06
X73.3Y-47.0
X75.84Y-39.06
X75.84Y-47.0
X78.38Y-39.06
X78.38Y-47.0
X80.92Y-39.06
X80.92Y-47.0
X83.46Y-39.06
X83.46Y-47.0
X86.0Y-39.06
X86.0Y-47.0
X88.54Y-39.06
X88.54Y-47.0
X93.11Y-39.03
X93.11Y-46.97
X95.65Y-39.03
X95.65Y-46.97
X98.19Y-39.03
X98.19Y-46.97
X100.73Y-39.03
X100.73Y-46.97
X103.27Y-39.03
X103.27Y-46.97
X105.81Y-39.03
X105.81Y-46.97
X108.35Y-39.03
X108.35Y-46.97
X110.89Y-39.03
X110.89Y-46.97
X115.8Y-39.06
X115.8Y-47.0
X118.34Y-39.06
X118.34Y-47.0
X120.88Y-39.06
X120.88Y-47.0
X123.42Y-39.06
X123.42Y-47.0
X125.96Y-39.06
X125.96Y-47.0
X128.5Y-39.06
X128.5Y-47.0
X131.04Y-39.06
X131.04Y-47.0
X133.58Y-39.06
X133.58Y-47.0
T5
X94.195Y-52.69
X94.195Y-55.23
X94.195Y-57.77
X94.195Y-60.31
X101.815Y-52.69
X101.815Y-55.23
X101.815Y-57.77
X101.815Y-60.31
T6
X76.74Y-22.42
X76.74Y-24.96
X76.74Y-27.5
X76.74Y-30.04
X76.74Y-32.58
X84.26Y-22.42
X84.26Y-24.96
X84.26Y-27.5
X84.26Y-30.04
X84.26Y-32.58
X90.74Y-22.42
X90.74Y-24.96
X90.74Y-27.5
X90.74Y-30.04
X90.74Y-32.58
X98.26Y-22.42
X98.26Y-24.96
X98.26Y-27.5
X98.26Y-30.04
X98.26Y-32.58
X104.24Y-22.42
X104.24Y-24.96
X104.24Y-27.5
X104.24Y-30.04
X104.24Y-32.58
X111.76Y-22.42
X111.76Y-24.96
X111.76Y-27.5
X111.76Y-30.04
X111.76Y-32.58
T2
G00X134.685Y-26.555
M15
G01X135.085Y-26.555
M16
G05
G00X134.685Y-31.395
M15
G01X135.085Y-31.395
M16
G05
T3
G00X131.635Y-26.245
M15
G01X132.135Y-26.245
M16
G05
G00X131.635Y-31.705
M15
G01X132.135Y-31.705
M16
G05
M30
